<?xml version="1.0" encoding="UTF-8" standalone="no"?>
<!-- Created with Inkscape (http://www.inkscape.org/) -->

<svg
   width="91.491638mm"
   height="90.392723mm"
   viewBox="0 0 91.491638 90.392723"
   version="1.1"
   id="svg5"
   inkscape:version="1.2.2 (b0a8486541, 2022-12-01)"
   sodipodi:docname="log_icon.svg"
   xmlns:inkscape="http://www.inkscape.org/namespaces/inkscape"
   xmlns:sodipodi="http://sodipodi.sourceforge.net/DTD/sodipodi-0.dtd"
   xmlns="http://www.w3.org/2000/svg"
   xmlns:svg="http://www.w3.org/2000/svg"
   xmlns:rdf="http://www.w3.org/1999/02/22-rdf-syntax-ns#"
   xmlns:cc="http://creativecommons.org/ns#">
  <sodipodi:namedview
     id="namedview7"
     pagecolor="#505050"
     bordercolor="#eeeeee"
     borderopacity="1"
     inkscape:showpageshadow="0"
     inkscape:pageopacity="0"
     inkscape:pagecheckerboard="0"
     inkscape:deskcolor="#505050"
     inkscape:document-units="mm"
     showgrid="false"
     inkscape:zoom="1.1893044"
     inkscape:cx="179.5167"
     inkscape:cy="114.35256"
     inkscape:window-width="1680"
     inkscape:window-height="981"
     inkscape:window-x="1680"
     inkscape:window-y="662"
     inkscape:window-maximized="1"
     inkscape:current-layer="text7552-1" />
  <defs
     id="defs2">
    <rect
       x="78.320709"
       y="160.45801"
       width="388.4801"
       height="427.00571"
       id="rect19650" />
  </defs>
  <g
     inkscape:label="Layer 1"
     inkscape:groupmode="layer"
     id="layer1"
     transform="translate(-16.639004,-157.16093)">
    <path
       id="rect7606"
       style="fill:#73cbac;fill-opacity:0.383393;stroke:#00b072;stroke-width:1.123;stroke-linejoin:round;stroke-dasharray:none;stroke-opacity:1"
       d="m 64.939705,177.61862 a 23.927299,23.927299 0 0 1 0.380856,4.25038 23.927299,23.927299 0 0 1 -23.927222,23.92722 23.927299,23.927299 0 0 1 -3.198254,-0.22582 v 41.42176 h 69.374055 v -69.37354 z" />
    <path
       id="path18008-9"
       style="fill:#73cb90;fill-opacity:0.383393;stroke:#00b072;stroke-width:1.123;stroke-linejoin:round"
       d="m 65.055103,181.64973 a 23.927299,23.927299 0 0 1 -23.927299,23.9273 23.927299,23.927299 0 0 1 -23.9273,-23.9273 23.927299,23.927299 0 0 1 23.9273,-23.9273 23.927299,23.927299 0 0 1 23.927299,23.9273 z" />
    <g
       aria-label="V"
       transform="scale(1.0546452,0.94818618)"
       id="text7234"
       style="font-size:4.56102px;fill:#ffffff;fill-opacity:0.798816;stroke-width:0.143654;stroke-linejoin:round">
      <path
         d="m 34.842209,211.9994 -9.324752,-36.99494 h 6.537462 l 5.625258,24.12273 q 0.456102,1.77373 0.810848,3.85153 0.405424,2.02712 0.608136,3.24339 0.202712,-1.21627 0.557458,-3.24339 0.405424,-2.0778 0.861526,-3.90221 l 5.422546,-24.07205 h 6.436107 l -9.324753,36.99494 z"
         style="font-weight:bold;font-size:50.678px;font-family:'JetBrains Mono';-inkscape-font-specification:'JetBrains Mono, Bold'"
         id="path21294" />
    </g>
    <g
       aria-label="LIB"
       id="text7548-0"
       style="font-weight:bold;font-size:35.2777px;font-family:'JetBrains Mono';-inkscape-font-specification:'JetBrains Mono, Bold';fill:none;stroke:#ffffff;stroke-width:1.623;stroke-linejoin:round;stroke-opacity:0.9">
      <path
         d="m 44.039315,233.72398 v -25.75272 h 4.409713 v 21.76634 h 10.936086 v 3.98638 z"
         id="path21297" />
      <path
         d="m 64.112338,233.72398 v -3.98638 h 5.185822 v -17.77996 h -5.185822 v -3.98638 h 14.816634 v 3.98638 H 73.74315 v 17.77996 h 5.185822 v 3.98638 z"
         id="path21299" />
      <path
         d="m 84.82036,233.72398 v -25.75272 h 7.902204 q 3.704159,0 5.891376,1.79917 2.2225,1.79916 2.2225,4.83304 0,2.11666 -1.128891,3.59833 -1.093609,1.44638 -2.998605,1.90499 2.15194,0.45861 3.421936,2.15194 1.30528,1.65805 1.30528,4.12749 0,2.2225 -1.05833,3.88055 -1.023058,1.65805 -2.892776,2.57527 -1.834441,0.88194 -4.374435,0.88194 z m 4.303879,-15.13413 h 3.52777 q 1.728607,0 2.751661,-0.91722 1.023053,-0.9525 1.023053,-2.57527 0,-1.5875 -1.023053,-2.50472 -0.987776,-0.9525 -2.751661,-0.9525 h -3.52777 z m 0,11.46525 h 3.704159 q 1.940273,0 3.033882,-1.02305 1.128886,-1.05833 1.128886,-2.85749 0,-1.79917 -1.128886,-2.89277 -1.093609,-1.12889 -3.033882,-1.12889 h -3.704159 z"
         id="path21301" />
    </g>
    <g
       aria-label="log"
       id="text7552-1"
       style="font-weight:bold;font-size:35.2777px;font-family:'JetBrains Mono';-inkscape-font-specification:'JetBrains Mono, Bold';fill:#ffffff;fill-opacity:0.9;stroke-width:0.323;stroke-linejoin:round">
      <path
         d="m 46.648391,244.04588 q -0.809978,0 -1.303867,-0.48401 -0.484011,-0.48401 -0.484011,-1.27423 v -4.33635 h -1.787878 v -1.11619 h 3.022601 v 5.42291 q 0,0.30621 0.167922,0.49388 0.1778,0.1778 0.474133,0.1778 h 1.590323 v 1.11619 z"
         style="font-size:9.87778px"
         id="path143" />
      <path
         d="m 51.695941,244.13478 q -1.047045,0 -1.659467,-0.57291 -0.612423,-0.58279 -0.612423,-1.56069 v -1.34338 q 0,-0.9779 0.612423,-1.55081 0.612422,-0.58279 1.659467,-0.58279 1.047045,0 1.659467,0.58279 0.612422,0.57291 0.612422,1.54094 v 1.35325 q 0,0.9779 -0.612422,1.56069 -0.612422,0.57291 -1.659467,0.57291 z m 0,-1.07667 q 0.493889,0 0.760589,-0.2667 0.276578,-0.27658 0.276578,-0.79023 v -1.34338 q 0,-0.51364 -0.276578,-0.78034 -0.2667,-0.27658 -0.760589,-0.27658 -0.493889,0 -0.770467,0.27658 -0.2667,0.2667 -0.2667,0.78034 v 1.34338 q 0,0.51365 0.2667,0.79023 0.276578,0.2667 0.770467,0.2667 z"
         style="font-size:9.87778px"
         id="path145" />
      <path
         d="m 56.160701,245.82388 v -1.02729 h 1.610079 q 0.829733,0 0.829733,-0.78034 v -0.40499 l 0.01976,-1.01741 h -0.01976 q -0.07902,0.5334 -0.454378,0.83961 -0.375355,0.29633 -0.968022,0.29633 -0.829734,0 -1.323623,-0.56303 -0.484011,-0.56303 -0.484011,-1.52118 v -1.05692 q 0,-0.94827 0.484011,-1.5113 0.493889,-0.56303 1.323623,-0.56303 0.592667,0 0.968022,0.30621 0.375356,0.29633 0.454378,0.82973 h 0.01976 l -0.02963,-1.03717 h 1.234723 v 5.43278 q 0,0.82974 -0.543278,1.30387 -0.543278,0.47413 -1.491545,0.47413 z m 1.432279,-3.16089 q 0.474133,0 0.730955,-0.27657 0.2667,-0.28646 0.2667,-0.79023 v -0.94826 q 0,-0.50377 -0.2667,-0.78035 -0.256822,-0.28645 -0.730955,-0.28645 -0.474134,0 -0.730956,0.27657 -0.256822,0.27658 -0.256822,0.79023 v 0.94826 q 0,0.51365 0.256822,0.79023 0.256822,0.27657 0.730956,0.27657 z"
         style="font-size:9.87778px"
         id="path147" />
    </g>
    <g
       transform="scale(0.26458333)"
       id="text19648"
       style="font-weight:bold;font-size:37.3333px;font-family:'JetBrains Mono';-inkscape-font-specification:'JetBrains Mono, Bold';white-space:pre;shape-inside:url(#rect19650);display:inline;fill:#73cb90;fill-opacity:0.383393;stroke:#ffffff;stroke-width:4.24441;stroke-linejoin:round;stroke-opacity:0.8" />
  </g>
  <metadata
     id="metadata20746">
    <rdf:RDF>
      <cc:Work
         rdf:about="" />
    </rdf:RDF>
  </metadata>
</svg>
